<?xml version="1.0" encoding="UTF-8" standalone="no"?>
<svg width="20px" height="20px" viewBox="0 0 20 20" version="1.1" xmlns="http://www.w3.org/2000/svg" xmlns:xlink="http://www.w3.org/1999/xlink" xmlns:sketch="http://www.bohemiancoding.com/sketch/ns">
    <!-- Generator: Sketch 3.3.3 (12072) - http://www.bohemiancoding.com/sketch -->
    <title>facebook</title>
    <desc>Created with Sketch.</desc>
    <defs></defs>
    <g id="Home" stroke="none" stroke-width="1" fill="none" fill-rule="evenodd" sketch:type="MSPage">
        <g id="Desktop-(&gt;1200px)" sketch:type="MSArtboardGroup" transform="translate(-400.000000, -3909.000000)" fill="#000000">
            <g id="Footer" sketch:type="MSLayerGroup" transform="translate(0.000000, 3425.000000)">
                <g id="Footer-white" transform="translate(0.000000, 468.000000)" sketch:type="MSShapeGroup">
                    <g id="Shape-+-Like-us" transform="translate(400.000000, 16.000000)">
                        <path d="M10,0 C4.47714844,0 0,4.47714844 0,10 C0,14.6595703 3.18691406,18.5748437 7.5,19.6849609 L7.5,11.25 L5.69285156,11.25 L5.69285156,8.38742187 L7.5,8.38742187 L7.5,6.52832031 C7.5,4.00210937 8.5896875,2.5 11.5599609,2.5 L14.9826953,2.5 L14.9826953,5.59707031 L12.1871875,5.59707031 C11.3574609,5.59570312 11.2545313,6.02972656 11.2545313,6.83753906 L11.25,8.38742187 L15,8.38742187 L14.50375,11.25 L11.25,11.25 L11.25,19.9223828 C16.1828516,19.3072266 20,15.0994922 20,10 C20,4.47714844 15.5228516,0 10,0 L10,0 Z" id="facebook"></path>
                    </g>
                </g>
            </g>
        </g>
    </g>
</svg>