<?xml version="1.0" encoding="UTF-8" standalone="no"?>
<svg width="20px" height="19px" viewBox="0 0 20 19" version="1.1" xmlns="http://www.w3.org/2000/svg" xmlns:xlink="http://www.w3.org/1999/xlink" xmlns:sketch="http://www.bohemiancoding.com/sketch/ns">
    <!-- Generator: Sketch 3.3.3 (12072) - http://www.bohemiancoding.com/sketch -->
    <title>github</title>
    <desc>Created with Sketch.</desc>
    <defs></defs>
    <g id="Home" stroke="none" stroke-width="1" fill="none" fill-rule="evenodd" sketch:type="MSPage">
        <g id="Desktop-(&gt;1200px)" sketch:type="MSArtboardGroup" transform="translate(-291.000000, -3909.000000)" fill="#161614">
            <g id="Footer" sketch:type="MSLayerGroup" transform="translate(0.000000, 3425.000000)">
                <g id="Footer-white" transform="translate(0.000000, 468.000000)" sketch:type="MSShapeGroup">
                    <g id="Github-+-Imported-Layers" transform="translate(291.000000, 16.000000)">
                        <path d="M9.58117647,0 C4.29058824,0 0,4.29 0,9.58235294 C0,13.8152941 2.74529412,17.4070588 6.55294118,18.6741176 C7.03235294,18.7623529 7.20705882,18.4664706 7.20705882,18.2123529 C7.20705882,17.9847059 7.19882353,17.3823529 7.19411765,16.5829412 C4.52882353,17.1617647 3.96647059,15.2982353 3.96647059,15.2982353 C3.53058824,14.1911765 2.90235294,13.8964706 2.90235294,13.8964706 C2.03235294,13.3017647 2.96823529,13.3141176 2.96823529,13.3141176 C3.93,13.3817647 4.43588235,14.3017647 4.43588235,14.3017647 C5.29117647,15.7658824 6.67882353,15.3429412 7.22470588,15.0976471 C7.31176471,14.4782353 7.55941176,14.0564706 7.83294118,13.8164706 C5.70529412,13.5747059 3.46823529,12.7529412 3.46823529,9.08117647 C3.46823529,8.03470588 3.84176471,7.17941176 4.45470588,6.50941176 C4.35647059,6.26705882 4.02764706,5.29294118 4.54882353,3.97411765 C4.54882353,3.97411765 5.35352941,3.71588235 7.18352941,4.95588235 C7.94823529,4.74352941 8.76764706,4.63705882 9.58235294,4.63352941 C10.3964706,4.63705882 11.2158824,4.74352941 11.9817647,4.95588235 C13.8105882,3.71588235 14.6141176,3.97411765 14.6141176,3.97411765 C15.1364706,5.29294118 14.8076471,6.26705882 14.7094118,6.50941176 C15.3235294,7.17941176 15.6941176,8.03470588 15.6941176,9.08117647 C15.6941176,12.7617647 13.4541176,13.5717647 11.3194118,13.8094118 C11.6635294,14.1052941 11.9694118,14.69 11.9694118,15.5835294 C11.9694118,16.8647059 11.9582353,17.8982353 11.9582353,18.2123529 C11.9582353,18.4688235 12.1305882,18.7664706 12.6170588,18.6729412 C16.4211765,17.4035294 19.1641176,13.8147059 19.1641176,9.58235294 C19.1641176,4.29 14.8735294,0 9.58117647,0" id="github"></path>
                    </g>
                </g>
            </g>
        </g>
    </g>
</svg>