<svg viewBox="0 0 152 27" xmlns="http://www.w3.org/2000/svg"><g fill="#d5d3d5" fill-rule="evenodd"><path d="m55.38 20.246v2.864h-2.488v-22.967h2.737v9.769c.411-.494.646-.795.899-1.075 1.914-2.112 4.227-3.03 7.05-2.272 1.434.38 2.642 1.207 3.549 2.367 1.943 2.482 2.635 5.321 1.798 8.378-.688 2.501-2.159 4.518-4.655 5.544-2.775 1.143-5.349.735-7.628-1.261-.434-.385-.8-.847-1.266-1.347m.252-3.245c.047.451.154.93.372 1.323 1.479 2.588 5.186 3.451 7.666 1.813 2.316-1.534 3.066-3.768 2.694-6.395-.187-1.363-.761-2.688-1.804-3.597-1.521-1.323-3.357-1.934-5.31-1.023-1.979.926-3.548 2.284-3.622 4.721-.014.427-.002.856-.002 1.285l.006 1.875"/><path d="m49.46 15.716h-13.488c-.259 2.089 1.591 4.617 3.769 5.329 2.338.767 4.808-.132 6.479-2.449.702.213 1.434.443 2.233.689-.621 1.525-1.758 2.545-3.117 3.204-3.254 1.567-6.453 1.405-9.361-.856-2.025-1.564-3.01-3.719-3.14-6.28-.098-1.938.302-3.743 1.409-5.334 1.705-2.446 4.065-3.674 7.07-3.686 2.962-.012 5.288 1.198 6.971 3.61.984 1.417 1.374 3.042 1.411 4.755.004.196-.014.396-.048.581-.02.116-.087.215-.186.437m-2.556-2.167c-.16-2.832-2.606-5.088-5.409-5.11-3.084-.021-5.407 2.051-5.656 5.11h11.07"/><path d="m116.41 14.742c-.147 3.853-1.665 6.608-5.118 8.06-2.904 1.214-5.634.718-8.207-1.03-1.997-1.345-2.89-3.328-3.273-5.59-.614-3.604 1.123-6.855 3.722-8.496 5-3.16 11.423-.374 12.702 5.298.144.643.132 1.315.175 1.763m-2.796-.428c.06-.888-.403-2.197-1.275-3.351-2.138-2.834-6.073-3.115-8.415-.136-1.744 2.214-1.884 5.108-.389 7.674 1.302 2.232 4.315 3.2 6.626 2.062 2.327-1.151 3.418-3.088 3.453-6.248"/><path d="m72.51 6.623h2.761c0 3.252-.034 6.477.022 9.702.016.881.181 1.794.46 2.629.521 1.574 1.725 2.062 3.074 2.062 2.173.001 4.499-1.675 5.24-3.729.127-.357.138-.765.139-1.145.01-2.856.007-5.71.007-8.562v-.97h2.814c.026.278-.001.573 0 .867.012 3.908.022 7.816.031 11.727.002.674-.067 1.387.863 1.546v2.429c-.341.062-.639.143-.943.163-1.327.084-2.169-.622-2.288-1.944-.04-.503-.008-1-.008-1.451-.934.801-1.784 1.674-2.771 2.341-1.656 1.106-3.532 1.407-5.495 1.047-1.789-.332-2.894-1.479-3.454-3.145-.264-.768-.438-1.595-.46-2.404-.057-2.103.008-6.325.008-6.325l-.018-4.212.018-.625"/><path d="m137.68 20.944c.38-.562.724-1.07 1.086-1.598 1.372.935 2.823 1.591 4.415 1.884 1.516.278 3.02.318 4.43-.507.649-.39 1.031-.942 1.112-1.688.123-1.097-.208-1.778-1.269-2.26-.813-.363-1.686-.607-2.544-.852-1.198-.347-2.419-.613-3.612-.969-.741-.228-1.463-.525-1.983-1.171-1.279-1.573-1.191-3.885.194-5.455 1.046-1.187 2.403-1.692 3.913-1.89 2.498-.323 4.817.137 6.87 1.673.183.138.374.27.613.443-.419.588-.75 1.054-1.165 1.638-.387-.242-.732-.472-1.088-.675-1.46-.829-3.02-1.316-4.701-1.053-.676.104-1.36.363-1.951.704-.815.473-1.108 1.295-1.01 2.22.095.874.622 1.422 1.443 1.661 1.227.369 2.479.676 3.71 1.041.966.29 1.939.589 2.872.975 2.887 1.179 2.841 4.335 1.594 6.06-.667.922-1.547 1.534-2.639 1.835-3.337.925-6.485.502-9.408-1.391-.286-.187-.557-.397-.885-.625"/><path d="m91.95.083h2.725v18.555c-.074 1.707.854 2.528 2.729 2.167.23-.045.449-.115.85-.225.165.74.311 1.374.47 2.083-1.559.61-3.109.903-4.708.474-1.225-.33-2.029-1.446-2.065-2.83v-20.223"/><path d="m23.313.025l-4.214 5.361h5.489v16.16l-14.385-21.514-6.613-.011c0 0 .045 2.497 0 3.572l-3.574.004v23.353l7.183-.019 3.591-5.349h-5.404v-16.194c4.738 7.03 14.337 21.568 14.337 21.568h6.632v-3.591h3.567v-23.339h-6.609m-16.11 23.332l-1.234 1.814h-4.135v-19.785h1.791v17.971h3.577m17.389.46v1.354h-3.372c-4.857-7.179-9.718-14.275-14.634-21.543l-1.197-.038v-1.791h3.591c2.43 3.6 4.778 7.136 7.124 10.67 2.446 3.623 4.891 7.243 7.34 10.87h1.149v.479m3.537-2.299l-1.746.025-.049-17.978-3.541.075 1.472-1.841h3.89l-.025 19.719"/><path d="m119.46 6.623h2.761c0 3.252-.034 6.477.022 9.702.016.881.181 1.794.46 2.629.521 1.574 1.725 2.062 3.074 2.062 2.173.001 4.499-1.675 5.24-3.729.127-.357.138-.765.139-1.145.01-2.856.007-5.71.007-8.563v-.969h2.814c.026.278-.001.572 0 .867.012 3.908.022 7.816.032 11.727.002.674-.068 1.387.862 1.546v2.429c-.341.062-.639.143-.943.163-1.327.084-2.169-.622-2.289-1.944-.039-.503-.007-1-.007-1.451-.934.801-1.784 1.674-2.771 2.341-1.656 1.106-3.532 1.407-5.495 1.047-1.789-.332-2.894-1.479-3.454-3.145-.264-.768-.438-1.595-.46-2.404-.056-2.103.008-6.325.008-6.325l-.018-4.212.018-.625"/></g></svg>