<?xml version="1.0" encoding="UTF-8" standalone="no"?>
<svg width="20px" height="20px" viewBox="0 0 20 20" version="1.1" xmlns="http://www.w3.org/2000/svg" xmlns:xlink="http://www.w3.org/1999/xlink" xmlns:sketch="http://www.bohemiancoding.com/sketch/ns">
    <!-- Generator: Sketch 3.3.3 (12072) - http://www.bohemiancoding.com/sketch -->
    <title>twitter</title>
    <desc>Created with Sketch.</desc>
    <defs></defs>
    <g id="Home" stroke="none" stroke-width="1" fill="none" fill-rule="evenodd" sketch:type="MSPage">
        <g id="Desktop-(&gt;1200px)" sketch:type="MSArtboardGroup" transform="translate(-514.000000, -3909.000000)" fill="#000000">
            <g id="Footer" sketch:type="MSLayerGroup" transform="translate(0.000000, 3425.000000)">
                <g id="Footer-white" transform="translate(0.000000, 468.000000)" sketch:type="MSShapeGroup">
                    <g id="Follow-us-+-Shape" transform="translate(514.000000, 16.000000)">
                        <path d="M10,0 C4.47714844,0 0,4.47714844 0,10 C0,15.5228516 4.47714844,20 10,20 C15.5228516,20 20,15.5228516 20,10 C20,4.47714844 15.5228516,0 10,0 L10,0 Z M15.7469141,7.0525 C15.7526172,7.17960938 15.7555469,7.3075 15.7555469,7.43605469 C15.7555469,11.3544531 12.7729688,15.8728516 7.31886719,15.8728516 C5.64433594,15.8728516 4.08574219,15.3819141 2.7734375,14.5405469 C3.00539062,14.5680469 3.24144531,14.5820703 3.48078125,14.5820703 C4.87003906,14.5820703 6.14855469,14.1079297 7.16339844,13.3126563 C5.86585938,13.2888281 4.77082031,12.4313672 4.39339844,11.2534375 C4.57453125,11.2879688 4.76027344,11.3066016 4.95132812,11.3066016 C5.22175781,11.3066016 5.48371094,11.2703516 5.73253906,11.2026172 C4.37605469,10.9301172 3.35390625,9.73167969 3.35390625,8.29503906 C3.35390625,8.28253906 3.35390625,8.27007813 3.35421875,8.25773438 C3.75402344,8.47980469 4.21121094,8.61320313 4.69726562,8.62859375 C3.9015625,8.09691406 3.378125,7.18929688 3.378125,6.16046875 C3.378125,5.61707031 3.524375,5.10765625 3.77960937,4.66976563 C5.24207031,6.46378906 7.42703125,7.64421875 9.89140625,7.76796875 C9.84085937,7.55082031 9.81464844,7.32457031 9.81464844,7.09210938 C9.81464844,5.45460938 11.1423828,4.12703125 12.7798437,4.12703125 C13.6326953,4.12703125 14.4033594,4.48710938 14.9442578,5.06335938 C15.6196484,4.93039063 16.2542969,4.68363281 16.8273047,4.34382813 C16.6058984,5.03628906 16.1357031,5.61738281 15.5235547,5.98433594 C16.1233594,5.91269531 16.6948047,5.75324219 17.2265625,5.51746094 C16.8291016,6.11214844 16.3263672,6.634375 15.7469141,7.0525 L15.7469141,7.0525 Z" id="twitter"></path>
                    </g>
                </g>
            </g>
        </g>
    </g>
</svg>