<svg viewBox="-1 -1 98 98" xmlns="http://www.w3.org/2000/svg"><g fill="none" fill-rule="evenodd"><g fill="#00cba0"><path d="m65.37 39.06c-3.66 0-5.996-1.387-5.996-2.343 0-.956 2.336-2.343 5.996-2.343 3.658 0 5.996 1.387 5.996 2.343 0 .956-2.339 2.343-5.996 2.343m-16.79-7.03c-3.66 0-5.996-1.387-5.996-2.343 0-.956 2.336-2.343 5.996-2.343 3.658 0 5.996 1.387 5.996 2.343 0 .956-2.339 2.343-5.996 2.343m0 12.886c-3.66 0-5.996-1.387-5.996-2.343 0-.956 2.336-2.343 5.996-2.343 3.658 0 5.996 1.387 5.996 2.343 0 .956-2.339 2.343-5.996 2.343m-15.591-5.857c-3.66 0-5.996-1.387-5.996-2.343 0-.956 2.336-2.343 5.996-2.343 3.658 0 5.996 1.387 5.996 2.343 0 .956-2.339 2.343-5.996 2.343m39.974-.293c.511-.614.801-1.305.801-2.05 0-2.673-3.61-4.686-8.395-4.686-2.19 0-4.126.424-5.589 1.136l-3.545-1.502c.473-.597.739-1.263.739-1.977 0-2.673-3.61-4.686-8.395-4.686-4.785 0-8.395 2.01-8.395 4.686 0 .715.264 1.38.736 1.977l-2.931 1.244c-1.379-.555-3.094-.879-5-.879-4.785 0-8.395 2.01-8.395 4.686 0 .59.185 1.148.513 1.661l-3.946 1.678 26.22 11.78 28.615-11.78-3.03-1.289"/><path d="m48 54.704v19.296l27.298-11.741c.427-.193.702-.627.702-1.107v-18.652l-28 12.204"/><path d="m20 61.15c0 .48.275.914.702 1.107l24.964 11.742v-19.297l-25.667-12.203v18.651"/></g><circle stroke="#00cba0" stroke-width="2" cx="48" cy="48" r="48"/></g></svg>