<?xml version="1.0" encoding="UTF-8" standalone="no"?>
<svg width="58px" height="58px" viewBox="0 0 58 58" version="1.1" xmlns="http://www.w3.org/2000/svg" xmlns:xlink="http://www.w3.org/1999/xlink" xmlns:sketch="http://www.bohemiancoding.com/sketch/ns">
    <!-- Generator: Sketch 3.3.3 (12072) - http://www.bohemiancoding.com/sketch -->
    <title>Cost-effective</title>
    <desc>Created with Sketch.</desc>
    <defs></defs>
    <g id="Home" stroke="none" stroke-width="1" fill="none" fill-rule="evenodd" sketch:type="MSPage">
        <g id="Desktop-(&gt;1200px)" sketch:type="MSArtboardGroup" transform="translate(-195.000000, -1892.000000)" fill="#00CBA0">
            <g id="Why-sia" sketch:type="MSLayerGroup" transform="translate(0.000000, 1375.000000)">
                <g id="Cost-effective" transform="translate(195.000000, 517.000000)" sketch:type="MSShapeGroup">
                    <path d="M56.7916667,55.5833333 L55.5833333,55.5833333 L55.5833333,20.5416667 C55.5833333,19.8746667 55.0395833,19.3333333 54.375,19.3333333 L47.125,19.3333333 C46.458,19.3333333 45.9166667,19.8746667 45.9166667,20.5416667 L45.9166667,55.5833333 L41.0833333,55.5833333 L41.0833333,37.4583333 C41.0833333,36.7913333 40.5395833,36.25 39.875,36.25 L32.625,36.25 C31.958,36.25 31.4166667,36.7913333 31.4166667,37.4583333 L31.4166667,55.5833333 L26.5833333,55.5833333 L26.5833333,32.625 C26.5833333,31.958 26.0395833,31.4166667 25.375,31.4166667 L18.125,31.4166667 C17.458,31.4166667 16.9166667,31.958 16.9166667,32.625 L16.9166667,55.5833333 L12.0833333,55.5833333 L12.0833333,44.7083333 C12.0833333,44.0413333 11.5395833,43.5 10.875,43.5 L3.625,43.5 C2.958,43.5 2.41666667,44.0413333 2.41666667,44.7083333 L2.41666667,55.5833333 L1.20833333,55.5833333 C0.541333333,55.5833333 0,56.1246667 0,56.7916667 C0,57.45625 0.541333333,58 1.20833333,58 L56.7916667,58 C57.45625,58 58,57.45625 58,56.7916667 C58,56.1246667 57.45625,55.5833333 56.7916667,55.5833333" id="Fill-323"></path>
                    <path d="M7.25,31.4166667 C9.24616667,31.4166667 10.875,29.79025 10.875,27.7916667 C10.875,27.3518333 10.7831667,26.9313333 10.6381667,26.5398333 L19.9085,18.81375 C20.45225,19.1351667 21.07575,19.3333333 21.75,19.3333333 C22.9075833,19.3333333 23.9274167,18.7775 24.592,17.92925 L32.63225,20.6069167 C32.6685,22.5740833 34.2731667,24.1666667 36.25,24.1666667 C38.2461667,24.1666667 39.875,22.54025 39.875,20.5416667 C39.875,19.8819167 39.6865,19.27775 39.3795833,18.7436667 L49.4498333,6.99625 C49.8534167,7.15333333 50.2908333,7.25 50.75,7.25 C52.7461667,7.25 54.375,5.62358333 54.375,3.625 C54.375,1.624 52.7461667,0 50.75,0 C48.7514167,0 47.125,1.624 47.125,3.625 C47.125,4.27991667 47.3135,4.88891667 47.618,5.42058333 L37.5501667,17.168 C37.1441667,17.0133333 36.70675,16.9166667 36.25,16.9166667 C35.0924167,16.9166667 34.0725833,17.4725 33.4055833,18.3183333 L25.36775,15.6406667 C25.3290833,13.6759167 23.7244167,12.0833333 21.75,12.0833333 C19.7514167,12.0833333 18.125,13.7073333 18.125,15.7083333 C18.125,16.1481667 18.2144167,16.5686667 18.3618333,16.9601667 L9.08908333,24.6838333 C8.54775,24.3624167 7.92183333,24.1666667 7.25,24.1666667 C5.25141667,24.1666667 3.625,25.7906667 3.625,27.7916667 C3.625,29.79025 5.25141667,31.4166667 7.25,31.4166667" id="Fill-324"></path>
                </g>
            </g>
        </g>
    </g>
</svg>