<?xml version="1.0" encoding="UTF-8" standalone="no"?>
<svg width="58px" height="58px" viewBox="0 0 58 58" version="1.1" xmlns="http://www.w3.org/2000/svg" xmlns:xlink="http://www.w3.org/1999/xlink" xmlns:sketch="http://www.bohemiancoding.com/sketch/ns">
    <!-- Generator: Sketch 3.3.3 (12072) - http://www.bohemiancoding.com/sketch -->
    <title>Customisable</title>
    <desc>Created with Sketch.</desc>
    <defs></defs>
    <g id="Home" stroke="none" stroke-width="1" fill="none" fill-rule="evenodd" sketch:type="MSPage">
        <g id="Desktop-(&gt;1200px)" sketch:type="MSArtboardGroup" transform="translate(-195.000000, -1684.000000)" fill="#00CBA0">
            <g id="Why-sia" sketch:type="MSLayerGroup" transform="translate(0.000000, 1375.000000)">
                <g id="Group" transform="translate(160.000000, 274.000000)" sketch:type="MSShapeGroup">
                    <path d="M90.7696583,44.57 C90.5932417,44.2244167 90.264575,43.9875833 89.8827417,43.92475 C89.5009083,43.8619167 89.1142417,43.99 88.8411583,44.2606667 L81.1924083,51.8900833 L76.460575,51.8900833 L76.460575,46.803 L83.9232417,39.15425 C84.189075,38.8763333 84.312325,38.4920833 84.2494917,38.1126667 C84.1866583,37.73325 83.949825,37.4118333 83.609075,37.2305833 C81.238325,36.0198333 78.563075,35.3794167 75.866075,35.3794167 C71.3082417,35.3794167 67.0404083,37.1363333 63.845575,40.3311667 C58.8334083,45.34575 57.465575,52.8229167 60.3172417,59.1884167 L37.172825,82.3110833 C36.0321583,83.45175 35.3989917,84.9694167 35.396575,86.5789167 C35.3917417,88.19325 36.020075,89.7133333 37.1607417,90.854 C38.3014083,91.9970833 39.819075,92.623 41.428575,92.623 C43.0404917,92.623 44.5581583,91.9970833 45.6964083,90.854 L68.8166583,67.7313333 C70.9771583,68.698 73.3479083,69.2030833 75.7234917,69.2030833 L75.7259083,69.2030833 C80.237825,69.2030833 84.4814917,67.4485833 87.6714917,64.25375 C92.8842417,59.0434167 94.1264083,51.13125 90.7696583,44.57" id="Customisable"></path>
                </g>
            </g>
        </g>
    </g>
</svg>