<svg viewBox="-1 -1 98 98" xmlns="http://www.w3.org/2000/svg"><g fill="none" fill-rule="evenodd"><circle stroke="#00cba0" stroke-width="2" cx="48" cy="48" r="48"/><path d="m69 49c-1.388 0-2.614.712-3.33 1.792l-5.408-2.238c.47-1.092.734-2.29.734-3.554 0-2.116-.738-4.06-1.964-5.6l7.948-7.966c.594.352 1.28.566 2.02.566 2.206 0 4-1.794 4-4 0-2.204-1.794-4-4-4-2.206 0-4 1.796-4 4 0 .74.214 1.424.566 2.02l-7.948 7.964c-1.542-1.238-3.494-1.984-5.622-1.984-3.348 0-6.27 1.842-7.82 4.56l-11.252-4.82c.044-.24.076-.486.076-.738 0-2.206-1.794-4-4-4-2.206 0-4 1.794-4 4 0 2.206 1.794 4 4 4 1.234 0 2.326-.574 3.06-1.456l11.322 4.85c-.25.824-.386 1.7-.386 2.604 0 2.13.748 4.088 1.99 5.63l-13.968 13.936c-.594-.35-1.28-.566-2.02-.566-2.206 0-4 1.796-4 4 0 2.206 1.794 4 4 4 2.206 0 4-1.794 4-4 0-.74-.216-1.424-.566-2.02l13.972-13.938c1.29 1.026 2.866 1.708 4.594 1.9v10.2c-1.724.448-3 2-3 3.858 0 2.206 1.796 4 4 4 2.208 0 4-1.794 4-4 0-1.858-1.28-3.41-3-3.858v-10.2c2.566-.286 4.804-1.656 6.256-3.64l5.78 2.388c-.008.106-.032.204-.032.31 0 2.206 1.794 4 4 4 2.206 0 4-1.794 4-4 0-2.204-1.794-4-4-4" fill="#00cba0"/></g></svg>