<svg viewBox="0 0 98 98" xmlns="http://www.w3.org/2000/svg"><g fill="none" fill-rule="evenodd" transform="translate(1 1)"><g fill="#00cba0"><path d="m41.846 51.814c-2.24.186-4.155 1.456-5.233 3.304h4.666c.618 0 1.12.5 1.12 1.12 0 .618-.502 1.12-1.12 1.12h-5.486c-.063.367-.114.737-.114 1.12 0 .381.052.753.114 1.12h5.486c.618 0 1.12.5 1.12 1.12 0 .618-.502 1.12-1.12 1.12h-4.666c1.167 1.998 3.311 3.36 5.786 3.36.618 0 1.12.5 1.12 1.12 0 .618-.502 1.12-1.12 1.12-3.752 0-6.96-2.323-8.292-5.6h-1.788c-.618 0-1.12-.502-1.12-1.12 0-.62.502-1.12 1.12-1.12h1.234c-.049-.372-.114-.739-.114-1.12 0-.383.065-.75.114-1.12h-1.234c-.618 0-1.12-.502-1.12-1.12 0-.62.502-1.12 1.12-1.12h1.788c1.098-2.704 3.476-4.751 6.384-5.385-1.604-2.865-2.536-6.153-2.563-9.659-8.83 1.104-15.689 8.642-15.689 17.765 0 9.883 8.04 17.92 17.92 17.92 9.124 0 16.663-6.859 17.765-15.684-6.601-.052-12.439-3.304-16.08-8.261"/><path d="m28.12 38.516c.448.461 1.165.461 1.608.018l4.467-4.493c.435-.439.435-1.147-.004-1.584-.439-.435-1.149-.435-1.584.004l-2.509 2.524c.258-5.316 4.617-9.58 9.999-9.596.616-.002 1.118-.506 1.116-1.124-.002-.618-.504-1.116-1.12-1.116h-.004c-3.291.011-6.382 1.301-8.7 3.636-2.218 2.233-3.445 5.17-3.541 8.299l-2.616-2.598c-.439-.439-1.149-.435-1.584.004-.437.437-.432 1.147.004 1.584l4.469 4.442"/><path d="m70.1 59.22v-.002c-.002-.002-.007-.004-.011-.004-.448-.439-1.147-.417-1.572.009l-4.467 4.493c-.435.439-.435 1.149.004 1.584.217.217.502.327.788.327.289 0 .576-.112.795-.332l2.509-2.524c-.258 5.316-4.619 9.58-9.999 9.598-.616.002-1.118.504-1.116 1.124.002.616.504 1.116 1.12 1.116h.004c6.644-.022 12.05-5.329 12.26-11.919l2.598 2.583c.439.437 1.149.432 1.584-.004.437-.439.432-1.149-.004-1.584l-4.493-4.464"/><path d="m58.08 41.04c-2.468 0-4.48-2.01-4.48-4.48 0-2.081 1.434-3.819 3.36-4.321v-1.279c0-.618.502-1.12 1.12-1.12.618 0 1.12.502 1.12 1.12v1.279c1.926.502 3.36 2.24 3.36 4.321 0 .618-.502 1.12-1.12 1.12-.618 0-1.12-.502-1.12-1.12 0-1.234-1-2.24-2.24-2.24-1.236 0-2.24 1.01-2.24 2.24 0 1.234 1 2.24 2.24 2.24 2.468 0 4.48 2.01 4.48 4.48 0 2.081-1.434 3.819-3.36 4.321v1.279c0 .618-.502 1.12-1.12 1.12-.618 0-1.12-.502-1.12-1.12v-1.279c-1.926-.502-3.36-2.24-3.36-4.321 0-.618.502-1.12 1.12-1.12.618 0 1.12.502 1.12 1.12 0 1.234 1 2.24 2.24 2.24 1.236 0 2.24-1.01 2.24-2.24 0-1.234-1-2.24-2.24-2.24m0 16.8c9.881 0 17.92-8.04 17.92-17.92 0-9.881-8.04-17.92-17.92-17.92-9.881 0-17.92 8.04-17.92 17.92 0 9.881 8.04 17.92 17.92 17.92"/></g><path d="m96 48c0 26.511-21.494 48-48 48-26.509 0-48-21.489-48-48 0-26.508 21.491-48 48-48 26.506 0 48 21.492 48 48" stroke="#00cba0" stroke-width="2"/></g></svg>