<?xml version="1.0" encoding="UTF-8" standalone="no"?>
<svg width="446px" height="448px" viewBox="0 0 446 448" version="1.1" xmlns="http://www.w3.org/2000/svg" xmlns:xlink="http://www.w3.org/1999/xlink" xmlns:sketch="http://www.bohemiancoding.com/sketch/ns">
    <!-- Generator: Sketch 3.3 (11970) - http://www.bohemiancoding.com/sketch -->
    <title>Graph</title>
    <desc>Created with Sketch.</desc>
    <defs></defs>
    <g id="Home" stroke="none" stroke-width="1" fill="none" fill-rule="evenodd" sketch:type="MSPage">
        <g id="Desktop-(>1200px)" sketch:type="MSArtboardGroup" transform="translate(-836.000000, -1703.000000)" stroke="#00CBA0" stroke-width="2">
            <g id="Why-sia" sketch:type="MSLayerGroup" transform="translate(0.000000, 1375.000000)">
                <path d="M1278.61818,613.000815 C1275.71456,580.220362 1261.74143,550.38911 1236.70559,525.350308 C1228.84726,517.497836 1220.26077,510.764884 1211.22425,505.092648 C1169.12849,478.633526 1116.37479,475.9218 1072.02216,496.8082 C1072.00181,496.776537 1071.97693,496.747135 1071.95432,496.715472 C1051.2332,506.058376 1026.91196,504.156323 1007.65849,491.276187 L994.926866,456.136827 L1001.06654,421.359331 L1001.15699,420.854981 C1001.15699,420.850458 1001.10724,420.814271 1001.11403,420.814271 C1001.73139,418.193011 1003.39351,416.100979 1005.60967,414.890992 C1005.61193,414.881946 1005.59384,414.875161 1005.59158,414.868376 C1006.10265,414.635425 1006.59337,414.359503 1007.06827,414.02704 C1011.21566,411.125334 1012.22197,405.407866 1009.31835,401.259987 C1006.41699,397.112109 1000.70019,396.10341 996.552805,399.005115 C992.405417,401.906821 991.394576,407.622028 994.2982,411.772168 C994.628363,412.247116 995.003753,412.676831 995.404019,413.068097 C995.399497,413.07262 995.397235,413.079405 995.394974,413.083929 C997.066141,414.98372 998.280507,417.584626 997.95939,420.257904 C997.968435,420.262427 998.228495,420.332539 998.228495,420.3348 L992.896138,450.532441 L960.967579,362.413771 C960.965318,362.409248 960.877124,362.402463 960.883908,362.393416 C959.741906,358.580263 960.327606,354.67212 962.276924,351.487707 C962.27014,351.476399 962.243003,351.476399 962.236219,351.471876 C962.720156,350.79564 963.143036,350.080957 963.50712,349.302947 C966.679849,342.5225 963.75135,334.45517 956.971704,331.282066 C950.189797,328.1067 942.121159,331.033284 938.948429,337.813731 C935.773438,344.591916 938.731336,352.663769 945.513243,355.836873 C946.2889,356.203262 945.660233,356.47466 947.921623,356.682733 L947.921623,356.709873 C952.444402,357.910812 954.904794,360.35114 956.465153,364.008239 C956.478721,364.008239 956.849589,363.908726 956.85185,363.910988 L957.100603,364.625671 L1001.1977,486.334467 C1000.82683,486.017835 1000.44013,485.728343 1000.07379,485.400403 C999.157926,484.583945 998.393576,483.631788 997.516157,482.752003 L940.581153,425.810271 L924.007429,380.066002 L923.903405,379.781033 C923.901143,379.778772 923.864961,379.77651 923.869484,379.771987 C923.412683,378.243107 923.645606,376.67804 924.428047,375.402466 C924.425786,375.397942 924.414479,375.397942 924.409956,375.395681 C924.606697,375.124282 924.77404,374.839313 924.92103,374.524943 C926.191931,371.808693 925.01827,368.576786 922.300079,367.305735 C919.584151,366.032422 916.350364,367.20396 915.079463,369.922471 C913.8063,372.63646 914.914381,375.87289 917.632571,377.143941 C917.944643,377.290949 918.523559,377.399509 918.523559,377.485452 L918.523559,377.494498 C920.784948,377.976231 921.395524,378.953267 922.02419,380.41882 C922.028713,380.41882 922.214147,380.378111 922.216408,380.380372 L922.334,380.667603 L937.627778,422.856548 L909.394329,394.619763 L908.179963,393.409777 C908.170918,393.398468 907.96287,393.488935 907.974177,393.461795 C901.995063,386.765029 899.444215,378.229537 900.382692,369.85236 C900.36234,369.83879 900.296759,369.872715 900.276407,369.86593 C900.622399,368.024941 900.798788,366.161336 900.801049,364.218573 C900.801049,347.335306 887.09929,333.654544 870.215755,333.654544 C853.327698,333.656806 839.632723,347.351137 839.632723,364.24119 C839.632723,381.119934 853.316391,394.823312 870.20671,394.823312 C872.142459,394.821051 874.03072,394.619763 875.864707,394.275991 C875.873752,394.300869 875.88732,394.316701 875.894105,394.334794 C884.274814,393.396207 892.963073,395.807133 899.650002,401.786953 C899.681661,401.773383 899.631911,401.940746 899.638695,401.945269 L900.853061,403.162041 L963.896079,466.214769 L891.386884,466.214769 C891.3801,466.214769 891.319043,466.341422 891.31452,466.323328 C885.181631,465.975033 879.819877,463.073328 876.224267,458.572631 C876.203915,458.572631 876.190347,458.613341 876.17904,458.620126 C875.455395,457.56167 874.641295,456.573326 873.702818,455.634739 C865.534679,447.470158 852.294243,447.476943 844.126104,455.646047 C835.957965,463.815151 835.957965,477.061675 844.126104,485.228517 C852.287459,493.397621 865.534679,493.404406 873.702818,485.233041 C874.641295,484.298976 875.455395,483.285754 876.176778,482.231822 C876.190347,482.240869 876.208438,482.238607 876.217483,482.245392 C879.819877,477.73791 885.186154,473.979037 891.31452,473.633003 C891.321304,473.61491 891.3801,472.999739 891.384623,472.999739 L933.564061,472.999739 L915.468422,485.850473 L915.104338,486.112825 C915.102077,486.112825 914.900813,485.868566 914.898551,485.868566 C912.899483,487.121524 910.475274,487.254962 908.349567,486.648838 C908.342783,486.651099 908.297555,486.59682 908.295294,486.599081 C907.831709,486.429457 907.331942,486.262094 906.829914,486.178413 C902.46317,485.438851 898.308998,488.365435 897.569523,492.734956 C896.830049,497.104477 899.767594,501.238785 904.134337,501.978347 C908.50108,502.72017 912.562536,499.49731 913.30201,495.125527 C913.385682,494.621178 913.197987,493.35465 913.329147,493.35465 L913.342715,493.35465 C913.256783,491.092993 914.658844,489.430675 916.497354,487.958337 C916.497354,487.94929 916.682788,488.256876 916.685049,488.256876 L917.071747,488.062373 L938.333331,472.999739 L970.680247,472.999739 L989.390985,491.710425 C990.125936,492.445464 990.81566,493.200857 991.503122,493.967559 C1009.55806,514.112135 1013.28935,542.486881 1002.64273,566.048821 C1002.67665,566.066914 1002.70378,566.075961 1002.73318,566.098577 C981.842466,610.451928 984.558395,663.21638 1011.01213,705.326167 C1016.68369,714.366009 1023.41359,722.915071 1031.26513,730.778852 C1056.3055,755.822177 1089.54114,770.642813 1122.31998,773.551304 C1130.90422,774.302174 1253.24539,773.883767 1253.24539,773.883767 C1259.87579,773.883767 1266.68709,770.593057 1271.384,765.911427 C1276.07412,761.223013 1279.99989,753.768592 1279.99763,747.123845 C1279.99763,747.123845 1279.99085,634.545357 1279.99989,628.626601 C1280.01346,622.714631 1278.72447,614.215325 1278.61818,613.000815 L1278.61818,613.000815 Z M1223.81115,689.786323 C1223.81115,696.431071 1220.28112,704.568512 1215.59326,709.254664 C1210.9054,713.940817 1202.55182,717.258668 1195.91238,717.258668 L1137.60924,717.258668 C1136.48533,717.258668 1122.80166,716.745271 1110.21929,713.269105 C1096.13536,709.390364 1082.86326,701.578601 1071.81637,690.53267 C1037.53371,656.257262 1037.53597,600.303874 1071.80959,566.019419 C1106.08999,531.744011 1162.38502,531.678423 1196.66317,565.953831 C1207.70779,577.004286 1216.71491,589.990719 1219.63436,604.300221 C1223.07846,621.203844 1223.81115,628.631125 1223.81115,629.759691 L1223.81115,689.786323 L1223.81115,689.786323 Z" id="Graph" sketch:type="MSShapeGroup"></path>
            </g>
        </g>
    </g>
</svg>