<?xml version="1.0" encoding="UTF-8" standalone="no"?>
<svg width="56px" height="56px" viewBox="0 0 56 56" version="1.1" xmlns="http://www.w3.org/2000/svg" xmlns:xlink="http://www.w3.org/1999/xlink" xmlns:sketch="http://www.bohemiancoding.com/sketch/ns">
    <!-- Generator: Sketch 3.3.3 (12072) - http://www.bohemiancoding.com/sketch -->
    <title>bcexplorer-icon</title>
    <desc>Created with Sketch.</desc>
    <defs></defs>
    <g id="Get-started" stroke="none" stroke-width="1" fill="none" fill-rule="evenodd" sketch:type="MSPage">
        <g id="Desktop-(&gt;1200px)" sketch:type="MSArtboardGroup" transform="translate(-649.000000, -1361.000000)" fill="#00CBA0">
            <g id="Discover-More" sketch:type="MSLayerGroup" transform="translate(0.000000, 1153.000000)">
                <path d="M704.969909,241.997909 C704.972212,241.107212 704.778182,239.827879 704.762061,239.644788 C704.324485,234.706515 702.220091,230.213879 698.448303,226.442091 C697.264545,225.259485 695.970818,224.245576 694.609727,223.391152 C688.268333,219.406333 680.321727,218.997545 673.640636,222.143485 C673.637182,222.138303 673.633727,222.134273 673.630273,222.129091 C670.082455,223.728545 665.890364,222.845909 662.858424,220.128333 L659.592727,216.862061 C659.591576,216.862636 659.597333,216.857455 659.59503,216.859182 C658.694545,215.850455 658.091727,214.722545 658.232788,213.460485 C658.229909,213.458758 658.224727,213.459333 658.222424,213.458182 C658.273667,213.180667 658.30303,212.897394 658.303606,212.604909 C658.30303,210.061788 656.240667,208 653.69697,208 C651.153273,208 649.090909,210.062364 649.090909,212.606061 C649.090909,215.148606 651.152697,217.212121 653.696394,217.212121 C653.988303,217.212121 654.272727,217.181606 654.549667,217.130364 C654.550818,217.133818 654.553121,217.135545 654.553697,217.138424 C655.801939,216.999091 656.915455,217.557 657.913818,218.440212 L661.223848,221.750242 C661.227303,221.754848 661.224424,221.760606 661.228455,221.764636 C663.948909,224.798879 664.799879,229.016879 663.195818,232.565273 C663.200424,232.568727 663.201576,232.573333 663.206182,232.576788 C660.059091,239.257303 660.466152,247.206788 664.451545,253.548758 C665.305394,254.911 666.318727,256.199545 667.501909,257.383879 C671.273697,261.155091 676.279909,263.388455 681.217606,263.826606 C682.510758,263.939455 700.939606,263.876697 700.939606,263.876697 C701.938545,263.876697 702.965121,263.381545 703.672152,262.675667 C704.378606,261.969788 704.969909,260.846485 704.969909,259.846394 C704.969909,259.846394 704.968758,242.889182 704.969909,241.997909 L704.969909,241.997909 Z M696.333545,251.21003 C696.333545,252.210697 695.888485,253.382364 695.18203,254.088818 C694.475576,254.795273 693.302758,255.240333 692.303242,255.240333 L683.520636,255.240333 C683.351364,255.240333 681.289576,255.216152 679.394182,254.693364 C677.272515,254.108394 675.273485,252.959758 673.60897,251.295242 C668.445,246.133 668.445576,237.718303 673.608394,232.554909 C678.772364,227.392091 687.209515,227.388636 692.372909,232.551455 C694.037424,234.215394 695.350727,236.178727 695.790606,238.334364 C696.308788,240.879788 696.333545,241.999061 696.333545,242.168909 L696.333545,251.21003 L696.333545,251.21003 Z" id="bcexplorer-icon" sketch:type="MSShapeGroup"></path>
            </g>
        </g>
    </g>
</svg>