<?xml version="1.0" encoding="UTF-8" standalone="no"?>
<svg width="48px" height="46px" viewBox="0 0 48 46" version="1.1" xmlns="http://www.w3.org/2000/svg" xmlns:xlink="http://www.w3.org/1999/xlink" xmlns:sketch="http://www.bohemiancoding.com/sketch/ns">
    <!-- Generator: Sketch 3.3.3 (12072) - http://www.bohemiancoding.com/sketch -->
    <title>blog-icon</title>
    <desc>Created with Sketch.</desc>
    <defs></defs>
    <g id="Get-started" stroke="none" stroke-width="1" fill="none" fill-rule="evenodd" sketch:type="MSPage">
        <g id="Desktop-(&gt;1200px)" sketch:type="MSArtboardGroup" transform="translate(-357.000000, -1368.000000)" fill="#00CBA0">
            <g id="Discover-More" sketch:type="MSLayerGroup" transform="translate(0.000000, 1153.000000)">
                <g id="blog-icon" transform="translate(357.000000, 215.000000)" sketch:type="MSShapeGroup">
                    <path d="M46,42 L2,42 C0.894,42 0,42.896 0,44 C0,45.106 0.894,46 2,46 L46,46 C47.104,46 48,45.106 48,44 C48,42.896 47.104,42 46,42" id="Fill-622"></path>
                    <path d="M2,4 L40,4 C41.104,4 42,3.106 42,2 C42,0.896 41.104,0 40,0 L2,0 C0.894,0 0,0.896 0,2 C0,3.106 0.894,4 2,4" id="Fill-623"></path>
                    <path d="M2,10 L32,10 C33.104,10 34,9.106 34,8 C34,6.896 33.104,6 32,6 L2,6 C0.894,6 0,6.896 0,8 C0,9.106 0.894,10 2,10" id="Fill-624"></path>
                    <path d="M2,16 L36,16 C37.104,16 38,15.106 38,14 C38,12.896 37.104,12 36,12 L2,12 C0.894,12 0,12.896 0,14 C0,15.106 0.894,16 2,16" id="Fill-625"></path>
                    <path d="M2,22 L46,22 C47.104,22 48,21.106 48,20 C48,18.896 47.104,18 46,18 L2,18 C0.894,18 0,18.896 0,20 C0,21.106 0.894,22 2,22" id="Fill-626"></path>
                    <path d="M2,28 L38,28 C39.104,28 40,27.106 40,26 C40,24.896 39.104,24 38,24 L2,24 C0.894,24 0,24.896 0,26 C0,27.106 0.894,28 2,28" id="Fill-627"></path>
                    <path d="M2,34 L32,34 C33.104,34 34,33.106 34,32 C34,30.896 33.104,30 32,30 L2,30 C0.894,30 0,30.896 0,32 C0,33.106 0.894,34 2,34" id="Fill-628"></path>
                    <path d="M2,40 L38,40 C39.104,40 40,39.106 40,38 C40,36.896 39.104,36 38,36 L2,36 C0.894,36 0,36.896 0,38 C0,39.106 0.894,40 2,40" id="Fill-629"></path>
                </g>
            </g>
        </g>
    </g>
</svg>