<?xml version="1.0" encoding="UTF-8" standalone="no"?>
<svg width="31px" height="48px" viewBox="0 0 31 48" version="1.1" xmlns="http://www.w3.org/2000/svg" xmlns:xlink="http://www.w3.org/1999/xlink" xmlns:sketch="http://www.bohemiancoding.com/sketch/ns">
    <!-- Generator: Sketch 3.3.3 (12072) - http://www.bohemiancoding.com/sketch -->
    <title>devdoc-icon</title>
    <desc>Created with Sketch.</desc>
    <defs></defs>
    <g id="Get-started" stroke="none" stroke-width="1" fill="none" fill-rule="evenodd" sketch:type="MSPage">
        <g id="Desktop-(&gt;1200px)" sketch:type="MSArtboardGroup" transform="translate(-1197.000000, -1368.000000)" fill="#00CBA0">
            <g id="Discover-More" sketch:type="MSLayerGroup" transform="translate(0.000000, 1153.000000)">
                <g id="devdoc-icon" transform="translate(1197.000000, 215.000000)" sketch:type="MSShapeGroup">
                    <path d="M29.8595318,8.58862876 C29.8036656,8.58862876 29.8017391,8.58862876 4.76404013,11.4782609 C3.19400669,11.451291 1.9264214,10.1644415 1.9264214,8.58862876 C1.9264214,6.5312107 1.9264214,6.36168562 10.7031973,5.16345151 C14.3479866,4.66643478 19.3431973,3.98448161 26.1723612,2.7958796 C26.6944214,2.70341137 27.0469565,2.20446823 26.9544883,1.68240803 C26.8639465,1.1584214 26.372709,0.807812709 25.8410167,0.896428094 C19.0484548,2.07925084 14.0744348,2.75927759 10.4431304,3.25436789 C2.00347826,4.40636789 0,4.67991973 0,8.58862876 L0,40.3745819 C0,45.7088428 4.4095786,47.1170569 6.74247492,47.1170569 C6.78292977,47.1170569 6.82145819,47.1151304 6.86191304,47.1093512 L29.9789699,44.2197191 C30.4605753,44.16 30.8227425,43.7496722 30.8227425,43.264214 L30.8227425,9.55183946 C30.8227425,9.02014716 30.3912241,8.58862876 29.8595318,8.58862876" id="Fill-522"></path>
                    <path d="M4.82356656,8.71557993 C4.88713846,9.19911171 5.30131906,9.55357324 5.77714515,9.55357324 C5.81952642,9.55357324 5.86190769,9.5497204 5.90428896,9.54779398 L28.0581351,6.65816187 C28.5840482,6.58688428 28.9558475,6.10335251 28.8864963,5.57551304 C28.8190716,5.04767358 28.3220548,4.67009498 27.8096268,4.74522542 L5.6557806,7.63485753 C5.12601472,7.7042087 4.75421538,8.18581405 4.82356656,8.71557993" id="Fill-523"></path>
                </g>
            </g>
        </g>
    </g>
</svg>