<?xml version="1.0" encoding="UTF-8" standalone="no"?>
<svg width="100px" height="60px" viewBox="0 0 100 60" version="1.1" xmlns="http://www.w3.org/2000/svg" xmlns:xlink="http://www.w3.org/1999/xlink" xmlns:sketch="http://www.bohemiancoding.com/sketch/ns">
    <!-- Generator: Sketch 3.3.3 (12072) - http://www.bohemiancoding.com/sketch -->
    <title>logo</title>
    <desc>Created with Sketch.</desc>
    <defs></defs>
    <g id="Get-started" stroke="none" stroke-width="1" fill="none" fill-rule="evenodd" sketch:type="MSPage">
        <g id="Desktop-(&gt;1200px)" sketch:type="MSArtboardGroup" transform="translate(-1024.000000, -1650.000000)" fill="#F5F5F5">
            <g id="Footer" sketch:type="MSLayerGroup" transform="translate(0.000000, 1572.000000)">
                <g id="Become-an-investor-n-+-Rectangle-27-+-is-backed-by-+-logo-+-Nebulous-+-Raptor-Logo" transform="translate(1024.000000, 78.000000)" sketch:type="MSShapeGroup">
                    <g id="is-backed-by-+-logo">
                        <g id="logo">
                            <path d="M46,20 C43.791,20 42,21.791 42,24 L42,54 C42,56.2085 43.791,58 46,58 C48.209,58 50,56.2085 50,54 L50,24 C50,21.791 48.209,20 46,20" id="Fill-1"></path>
                            <path d="M90.9418425,22.5803511 C85.3974194,19.0956451 78.4495232,18.7381619 72.6080953,21.4892721 C72.6050749,21.4847406 72.6020545,21.4812161 72.5990342,21.4766846 C69.497097,22.8759041 65.7654093,22.3804626 63.1145166,20.003451 C62.9942045,19.8962061 62.8764094,19.7879541 62.7601245,19.6716462 L50.9942082,7.9033998 C50.9932014,7.90239281 50.98263,7.89735783 50.9846436,7.89383335 C50.1968261,7.01170578 49.8696175,5.87883647 49.99295,4.77517002 C49.990433,4.77315603 49.9859024,4.77365952 49.9838888,4.77265253 C50.0286912,4.53047024 50.0543645,4.28274949 50.0548679,4.02697277 C50.0543645,1.80302444 48.2511937,0 46.0271823,0 C43.8031709,0 42,1.80352794 42,4.02797977 C42,6.2514246 43.8026675,8.05595954 46.0266789,8.05595954 C46.2819015,8.05595954 46.53058,8.02927417 46.7727144,7.9839594 C46.7737212,7.98698038 46.7752314,7.98899437 46.7762382,7.99151186 C47.8801895,7.86815498 49.0359908,8.17377794 49.9169369,8.96175149 C49.9209641,8.9597375 49.9254947,8.97031094 49.9265015,8.97131794 L61.7477916,20.7949491 C61.844444,20.8916206 61.9234774,21.00239 62.014089,21.103593 C64.3926435,23.7570247 64.8784224,27.5000249 63.4759562,30.6030798 C63.4799833,30.6061008 63.4809901,30.6101288 63.4850173,30.6131497 C60.733445,36.4552309 61.0893473,43.4070205 64.5738667,48.9530451 C65.3204056,50.1443201 66.2063857,51.2711475 67.2408682,52.3068418 C70.538627,55.6047502 74.9156708,57.5578169 79.2328101,57.9409785 C80.3634415,58.039664 96.4761977,57.9847828 96.4761977,57.9847828 C97.3495929,57.9847828 98.2471511,57.5517749 98.8653236,56.934487 C99.4829927,56.3171991 99.9999822,55.3348756 99.9999822,54.4603005 C99.9999822,54.4603005 99.9989754,39.6312929 99.9999822,38.8518789 C100.001996,38.0729683 99.8323508,36.9541969 99.8182556,36.7940847 C99.4356733,32.4755869 97.5957544,28.5467961 94.2979955,25.2483842 C93.2630097,24.2142004 92.1318749,23.3275413 90.9418425,22.5803511 L90.9418425,22.5803511 Z M91.9743114,35.6481244 C92.4273694,37.8740868 92.4490155,38.8528858 92.4490155,39.0014176 L92.4490155,46.9078384 C92.4490155,47.782917 92.059889,48.8075343 91.4422199,49.4253257 C90.8245509,50.0431171 89.7991296,50.4323207 88.925231,50.4323207 L81.2464013,50.4323207 C81.0984023,50.4323207 79.2957349,50.4111738 77.6385494,49.9539981 C75.7835285,49.4424447 74.0357314,48.4379672 72.5804084,46.982356 C68.0654337,42.4679977 68.0659371,35.1093822 72.579905,30.5940168 C77.0948798,26.079155 84.4716708,26.076134 88.9861422,30.5909958 C90.4414651,32.0461035 91.5897155,33.7630299 91.9743114,35.6481244 L91.9743114,35.6481244 Z" id="Fill-4"></path>
                            <path d="M1.63786288,55.3338422 C0.676920206,54.6678396 0,53.4445063 0,52.1119836 C0,49.8893877 1.80669845,48.1671992 4.06520301,48.1671992 C5.19392932,48.1671992 5.98445851,48.5563476 6.5498736,48.9449785 C9.54262882,51.1116861 12.8183546,52.4447262 16.6573915,52.4447262 C20.213458,52.4447262 22.3604574,51.0563153 22.3604574,48.7788659 L22.3604574,48.6670893 C22.3604574,46.5008991 21.0045131,45.3898599 14.398361,43.7225248 C6.43731655,41.7224472 1.29861382,39.556257 1.29861382,31.8338357 L1.29861382,31.7220591 C1.29861382,24.6666753 7.05795823,20 15.1320857,20 C19.9331173,20 24.1114033,21.2228159 27.6679957,23.4443769 C28.6278865,24.0001552 29.5877772,25.1665653 29.5877772,26.8333829 C29.5877772,29.0559789 27.7816047,30.7781673 25.5225742,30.7781673 C24.6762924,30.7781673 23.9977943,30.555649 23.3214001,30.1665006 C20.440676,28.499683 17.7308913,27.5557913 15.0195287,27.5557913 C11.6880504,27.5557913 9.93763043,29.0559789 9.93763043,30.9447973 L9.93763043,31.055539 C9.93763043,33.6119125 11.6317718,34.4445451 18.46409,36.167251 C26.481939,38.2226995 31,41.0559271 31,47.8339392 L31,47.9446809 C31,55.6676197 25.0144896,60 16.4890819,60 C11.2930487,60 6.04178897,58.4454765 1.63786288,55.3338422" id="Fill-5"></path>
                        </g>
                    </g>
                </g>
            </g>
        </g>
    </g>
</svg>