<?xml version="1.0" encoding="UTF-8" standalone="no"?>
<svg width="45px" height="47px" viewBox="0 0 45 47" version="1.1" xmlns="http://www.w3.org/2000/svg" xmlns:xlink="http://www.w3.org/1999/xlink" xmlns:sketch="http://www.bohemiancoding.com/sketch/ns">
    <!-- Generator: Sketch 3.3.3 (12072) - http://www.bohemiancoding.com/sketch -->
    <title>roadmap-icon</title>
    <desc>Created with Sketch.</desc>
    <defs></defs>
    <g id="Get-started" stroke="none" stroke-width="1" fill="none" fill-rule="evenodd" sketch:type="MSPage">
        <g id="Desktop-(&gt;1200px)" sketch:type="MSArtboardGroup" transform="translate(-989.000000, -1369.000000)" fill="#00CBA0">
            <g id="Discover-More" sketch:type="MSLayerGroup" transform="translate(0.000000, 1153.000000)">
                <g id="roadmap-icon" transform="translate(989.000000, 215.000000)" sketch:type="MSShapeGroup">
                    <path d="M37.44,18.25872 L34.76736,18.25872 C34.23744,18.25872 33.80736,17.82672 33.80736,17.29872 C33.80736,16.76688 34.23744,16.33872 34.76736,16.33872 L37.44,16.33872 C37.96992,16.33872 38.4,16.76688 38.4,17.29872 C38.4,17.82672 37.96992,18.25872 37.44,18.25872" id="Fill-184"></path>
                    <path d="M31.430592,8.870688 C31.184832,8.870688 30.939072,8.776608 30.750912,8.588448 C30.376512,8.214048 30.376512,7.607328 30.750912,7.231008 L32.753472,5.228448 C33.129792,4.852128 33.736512,4.852128 34.110912,5.228448 C34.487232,5.600928 34.487232,6.209568 34.110912,6.585888 L32.110272,8.588448 C31.922112,8.776608 31.676352,8.870688 31.430592,8.870688" id="Fill-185"></path>
                    <path d="M22.08,5.570592 C21.55008,5.570592 21.12,5.138592 21.12,4.610592 L21.12,1.937952 C21.12,1.406112 21.55008,0.977952 22.08,0.977952 C22.60992,0.977952 23.04,1.406112 23.04,1.937952 L23.04,4.610592 C23.04,5.138592 22.60992,5.570592 22.08,5.570592" id="Fill-186"></path>
                    <path d="M12.731328,8.870688 C12.485568,8.870688 12.239808,8.776608 12.051648,8.588448 L10.047168,6.585888 C9.674688,6.209568 9.674688,5.602848 10.047168,5.228448 C10.423488,4.852128 11.030208,4.852128 11.404608,5.228448 L13.411008,7.231008 C13.785408,7.607328 13.785408,8.214048 13.411008,8.588448 C13.222848,8.776608 12.977088,8.870688 12.731328,8.870688" id="Fill-187"></path>
                    <path d="M9.389952,18.25872 L6.719232,18.25872 C6.189312,18.25872 5.759232,17.82672 5.759232,17.29872 C5.759232,16.76688 6.189312,16.33872 6.719232,16.33872 L9.389952,16.33872 C9.921792,16.33872 10.349952,16.76688 10.349952,17.29872 C10.349952,17.82672 9.921792,18.25872 9.389952,18.25872" id="Fill-188"></path>
                    <path d="M22.185024,22.78128 C25.111104,22.78128 27.948864,23.01744 30.654144,23.43216 C31.911744,21.67536 32.639424,19.55184 32.639424,17.29968 C32.639424,11.4744 27.900864,6.73968 22.079424,6.73968 C16.256064,6.73968 11.519424,11.4744 11.519424,17.29968 C11.519424,19.56336 12.252864,21.69264 13.520064,23.45328 C16.288704,23.02512 19.193664,22.78128 22.185024,22.78128" id="Fill-189"></path>
                    <path d="M24.309312,24.761184 C23.886912,24.743904 23.466432,24.730464 23.040192,24.726624 L23.040192,47.021664 L31.228992,47.021664 L24.309312,24.761184 Z" id="Fill-190"></path>
                    <path d="M12.928128,47.02128 L21.120768,47.02128 L21.120768,24.732 C20.704128,24.73968 20.287488,24.74928 19.874688,24.76464 L12.928128,47.02128 Z" id="Fill-191"></path>
                    <path d="M44.16,43.73616 L44.16,30.70128 C44.16,30.37488 43.99488,30.07152 43.7184,29.89296 C39.98208,27.49488 34.80768,25.85328 28.98432,25.12944 L44.16,43.73616 Z" id="Fill-192"></path>
                    <path d="M17.664384,25.404384 L0.309504,46.760544 C0.480384,46.919904 0.706944,47.021664 0.960384,47.021664 L10.917504,47.021664 L17.664384,25.404384 Z" id="Fill-193"></path>
                    <path d="M15.423744,25.115616 C9.525504,25.837536 4.264704,27.481056 0.447744,29.888736 C0.169344,30.065376 0.000384,30.370656 0.000384,30.700896 L0.000384,44.098656 L15.423744,25.115616 Z" id="Fill-194"></path>
                    <path d="M26.390592,24.988128 L33.241152,47.022048 L43.200192,47.022048 C43.540032,47.022048 43.822272,46.835808 43.993152,46.570848 L26.390592,24.988128 Z" id="Fill-195"></path>
                </g>
            </g>
        </g>
    </g>
</svg>